<?xml version="1.0" encoding="iso-8859-1"?>
<!-- Generator: Adobe Illustrator 18.1.1, SVG Export Plug-In . SVG Version: 6.00 Build 0)  -->
<svg version="1.1" id="Capa_1" xmlns="http://www.w3.org/2000/svg" xmlns:xlink="http://www.w3.org/1999/xlink" x="0px" y="0px"
	 viewBox="0 0 54.056 54.056" style="enable-background:new 0 0 54.056 54.056;" xml:space="preserve">
<g>
	<path style="fill:#010002;" d="M51.953,47.832c-0.211-0.854,1.495-1.015,1.84-3.731c0.347-2.72-1.838-0.106-1.838-0.106
		s-1.599,1.84-7.993,1.438c-5.891-0.367-12.914-3.335-12.677-13.795c0.017-0.687,0.233-1.302,0.442-1.386
		c0.209-0.082,0.789,0.227,1.148,0.81c0.889,1.438,1.682,3.772,2.115,5.187c0.202,0.654,0.693,0.744,0.932,0.102
		c0.785-2.137,0.211-5.057-0.341-6.963c-0.188-0.659,0.011-1.488,0.455-1.899c0.442-0.411,1.118-0.343,1.567,0.175
		c3.008,3.455,5.748,5.143,9.16,5.143c4.076,0,7.834-1.278,6.875-14.229C52.677,5.628,47.081,1.631,42.767,2.271
		c-2.782,0.411-4.707,1.818-5.721,2.768c-0.502,0.468-0.847,0.949-0.847,1.001c-0.001,0.051-0.397-0.299-0.929-0.733
		c-2.325-1.902-5.248-3.035-8.422-3.035c-3.132,0-6.018,1.102-8.33,2.957c-0.534,0.429-0.932,0.795-0.934,0.769
		c0-0.028-0.343-0.49-0.843-0.958c-1.016-0.949-2.939-2.356-5.721-2.768C6.707,1.625,1.111,5.623,0.151,18.573
		c-0.959,12.95,2.799,14.229,6.876,14.229c3.396,0,6.126-1.67,9.116-5.092c0.451-0.518,0.953-0.783,1.151-0.59
		c0.199,0.193,0.349,0.34,0.332,0.328c-0.016-0.014-0.236,0.493-0.449,1.146c-0.587,1.8-1.485,5.299-0.582,7.755
		c0.236,0.643,0.729,0.555,0.93-0.1c0.479-1.562,1.399-4.256,2.399-5.609c0.407-0.553,0.883-0.24,0.862,0.445
		c-0.128,4.168,1.244,11.76,7.503,16.586c6.546,5.05,16.089,4.923,21.261,2.766c0.633-0.266,1.617-0.25,2.293-0.129
		c0.416,0.074,0.945,0.119,1.604,0.083C55.363,50.283,52.166,48.684,51.953,47.832z M21.868,15.854c-0.668,0-1.21-0.542-1.21-1.21
		s0.542-1.21,1.21-1.21s1.21,0.542,1.21,1.21S22.536,15.854,21.868,15.854z M30.837,14.644c0-0.668,0.542-1.21,1.211-1.21
		c0.668,0,1.209,0.542,1.209,1.21s-0.541,1.21-1.209,1.21C31.379,15.854,30.837,15.312,30.837,14.644z"/>
</g>
<g>
</g>
<g>
</g>
<g>
</g>
<g>
</g>
<g>
</g>
<g>
</g>
<g>
</g>
<g>
</g>
<g>
</g>
<g>
</g>
<g>
</g>
<g>
</g>
<g>
</g>
<g>
</g>
<g>
</g>
</svg>
